ffmpeg version 3.4.8-0ubuntu0.2 Copyright (c) 2000-2020 the FFmpeg developers
  built with gcc 7 (Ubuntu 7.5.0-3ubuntu1~18.04)
  configuration: --prefix=/usr --extra-version=0ubuntu0.2 --toolchain=hardened --libdir=/usr/lib/x86_64-linux-gnu --incdir=/usr/include/x86_64-linux-gnu --enable-gpl --disable-stripping --enable-avresample --enable-avisynth --enable-gnutls --enable-ladspa --enable-libass --enable-libbluray --enable-libbs2b --enable-libcaca --enable-libcdio --enable-libflite --enable-libfontconfig --enable-libfreetype --enable-libfribidi --enable-libgme --enable-libgsm --enable-libmp3lame --enable-libmysofa --enable-libopenjpeg --enable-libopenmpt --enable-libopus --enable-libpulse --enable-librubberband --enable-librsvg --enable-libshine --enable-libsnappy --enable-libsoxr --enable-libspeex --enable-libssh --enable-libtheora --enable-libtwolame --enable-libvorbis --enable-libvpx --enable-libwavpack --enable-libwebp --enable-libx265 --enable-libxml2 --enable-libxvid --enable-libzmq --enable-libzvbi --enable-omx --enable-openal --enable-opengl --enable-sdl2 --enable-libdc1394 --enable-libdrm --enable-libiec61883 --enable-chromaprint --enable-frei0r --enable-libopencv --enable-libx264 --enable-shared
  libavutil      55. 78.100 / 55. 78.100
  libavcodec     57.107.100 / 57.107.100
  libavformat    57. 83.100 / 57. 83.100
  libavdevice    57. 10.100 / 57. 10.100
  libavfilter     6.107.100 /  6.107.100
  libavresample   3.  7.  0 /  3.  7.  0
  libswscale      4.  8.100 /  4.  8.100
  libswresample   2.  9.100 /  2.  9.100
  libpostproc    54.  7.100 / 54.  7.100
[rawvideo @ 0x55f20a1a3a20] Estimating duration from bitrate, this may be inaccurate
Input #0, rawvideo, from '../../SVC-Encoder-20220109T061506Z-001/SVC-Encoder/Dataset/RollerCoaster/ERP_8x8/tile_yuv/Tile_47_480x240.yuv':
  Duration: 00:00:10.00, start: 0.000000, bitrate: 41472 kb/s
    Stream #0:0: Video: rawvideo (I420 / 0x30323449), yuv420p, 480x240, 41472 kb/s, 30 tbr, 30 tbn, 30 tbc
Stream mapping:
  Stream #0:0 -> #0:0 (rawvideo (native) -> h264 (libx264))
Press [q] to stop, [?] for help
[libx264 @ 0x55f20a1b0c60] using cpu capabilities: MMX2 SSE2Fast LZCNT SSSE3 SSE4.2 AVX
[libx264 @ 0x55f20a1b0c60] profile High, level 2.1
Output #0, rawvideo, to 'RollerCoaster_Tile_47_480x240_x264_QP_36.h264':
  Metadata:
    encoder         : Lavf57.83.100
    Stream #0:0: Video: h264 (libx264), yuv420p, 480x240, q=-1--1, 30 fps, 30 tbn, 30 tbc
    Metadata:
      encoder         : Lavc57.107.100 libx264
    Side data:
      cpb: bitrate max/min/avg: 0/0/0 buffer size: 0 vbv_delay: -1
frame=  187 fps=0.0 q=42.0 PSNR=Y:nan U:nan V:nan *:nan size=      53kB time=00:00:04.80 bitrate=  89.9kbits/s speed= 9.6x    frame=  300 fps=0.0 q=42.0 LPSNR=Y:inf U:inf V:inf *:inf size=     112kB time=00:00:09.93 bitrate=  92.3kbits/s speed=11.2x    
video:112kB audio:0kB subtitle:0kB other streams:0kB global headers:0kB muxing overhead: 0.000000%
[libx264 @ 0x55f20a1b0c60] frame I:2     Avg QP:33.59  size:  7191  PSNR Mean Y:34.72 U:42.67 V:42.63 Avg:36.14 Global:36.11
[libx264 @ 0x55f20a1b0c60] frame P:76    Avg QP:35.52  size:   799  PSNR Mean Y:33.42 U:42.89 V:43.02 Avg:34.94 Global:34.92
[libx264 @ 0x55f20a1b0c60] frame B:222   Avg QP:41.52  size:   178  PSNR Mean Y:33.05 U:42.79 V:42.89 Avg:34.58 Global:34.57
[libx264 @ 0x55f20a1b0c60] consecutive B-frames:  0.7%  1.3%  2.0% 96.0%
[libx264 @ 0x55f20a1b0c60] mb I  I16..4: 20.0% 59.0% 21.0%
[libx264 @ 0x55f20a1b0c60] mb P  I16..4:  0.7%  1.0%  0.3%  P16..4: 38.7%  8.6%  2.1%  0.0%  0.0%    skip:48.6%
[libx264 @ 0x55f20a1b0c60] mb B  I16..4:  0.0%  0.1%  0.0%  B16..8: 25.2%  1.0%  0.1%  direct: 0.1%  skip:73.5%  L0:37.2% L1:62.0% BI: 0.8%
[libx264 @ 0x55f20a1b0c60] 8x8 transform intra:55.8% inter:79.0%
[libx264 @ 0x55f20a1b0c60] coded y,uvDC,uvAC intra: 53.7% 56.8% 11.0% inter: 3.0% 1.6% 0.0%
[libx264 @ 0x55f20a1b0c60] i16 v,h,dc,p: 25% 29% 25% 21%
[libx264 @ 0x55f20a1b0c60] i8 v,h,dc,ddl,ddr,vr,hd,vl,hu: 10% 23% 23%  8%  5%  5%  9%  7% 12%
[libx264 @ 0x55f20a1b0c60] i4 v,h,dc,ddl,ddr,vr,hd,vl,hu: 15% 23% 18%  5%  8%  5% 16%  6%  5%
[libx264 @ 0x55f20a1b0c60] i8c dc,h,v,p: 59% 17% 15% 10%
[libx264 @ 0x55f20a1b0c60] Weighted P-Frames: Y:0.0% UV:0.0%
[libx264 @ 0x55f20a1b0c60] ref P L0: 56.2% 17.9% 18.7%  7.2%
[libx264 @ 0x55f20a1b0c60] ref B L0: 80.4% 16.4%  3.2%
[libx264 @ 0x55f20a1b0c60] ref B L1: 85.0% 15.0%
[libx264 @ 0x55f20a1b0c60] PSNR Mean Y:33.151 U:42.815 V:42.923 Avg:34.685 Global:34.665 kb/s:91.65
